<svg width="16" height="19" viewBox="0 0 16 19" fill="none" xmlns="http://www.w3.org/2000/svg">
<path d="M8 4C9.38447 4 10.7378 4.41054 11.889 5.17971C13.0401 5.94888 13.9373 7.04213 14.4672 8.32122C14.997 9.6003 15.1356 11.0078 14.8655 12.3656C14.5954 13.7235 13.9287 14.9708 12.9497 15.9497C11.9708 16.9287 10.7235 17.5954 9.36563 17.8655C8.00777 18.1356 6.6003 17.997 5.32122 17.4672C4.04213 16.9373 2.94888 16.0401 2.17971 14.889C1.41054 13.7378 1 12.3845 1 11" stroke="#2EC6B4" stroke-width="2" stroke-linecap="round" stroke-linejoin="round"/>
<line x1="5.72761" y1="2.78732" x2="11.7873" y2="1.27239" stroke="#2EC6B4" stroke-width="2" stroke-linecap="round"/>
<line x1="5.41005" y1="3.10842" x2="9.4752" y2="7.85075" stroke="#2EC6B4" stroke-width="2" stroke-linecap="round"/>
</svg>
